User Type,Username,Date,Text
,eskebe,2011-05-25T00:33Z,"This is an awfully slow seed.  I almost want to say it'a fake because Selleck is spelled with an ""e"" no ""i""s.  Also this is twice the usual size for a normal TV movie.  "
,TataCa,2011-05-25T01:24Z,I tend to agree with eskebe. Too big for AVI.
,Bynx,2011-05-25T01:29Z,Why is it this is the only download? And as mentioned its too big for a tv movie.
,pduke,2011-05-25T01:44Z,"Fake. Every leecher is stopped at .5% downloaded and the ""seeder"" only has that much to give. thetorrentlord is an ass."
,eskebe,2011-05-25T03:35Z,"I would understand if it was an MKV file, but this is definately a fake.  I guess we'll have to wait for the DVD rip version."
[T],thetorrentlord,2011-05-25T18:34Z,Here is the upload info. (http://bayimg.com/baIIEAaDe)
[T],thetorrentlord,2011-05-25T18:36Z,B-4 you post stupid remarks check your facts.
,blaatann,2011-05-28T10:46Z,"thank you thetorrentlord.
Like these film, and in good qulity.

And yes, this is Innocents_Lost.

Jesse_Stone_Innocents_Lost_720p_20110522_TTL.avi 
Format : AVI 
Format/Info : Audio Video Interleave 
Format profile : OpenDML 
File size : 2.80 GiB 
Duration : 1h 27mn 
Overall bit rate : 4 588 Kbps 
Movie name : Jesse_Stone_Innocents_Lost_720p_20110522_TTL.mpg 
Director : created.with.SUPER(C).v2010.bld.37 
Writing application : SUPER(C)  

Video 
ID : 0 
Format : MPEG-4 Visual 
Format profile : Simple@L3 
Format settings, BVOP : No 
Format settings, QPel : No 
Format settings, GMC : No warppoints 
Format settings, Matrix : Default (H.263) 
Codec ID : XVID 
Codec ID/Hint : XviD 
Duration : 1h 27mn 
Bit rate : 4 463 Kbps 
Width : 1 280 pixels 
Height : 720 pixels 
Display aspect ratio : 16:9 
Frame rate : 29.970 fps 
Color space : YUV 
Chroma subsampling : 4:2:0 
Bit depth : 8 bits 
Scan type : Progressive 
Compression mode : Lossy 
Bits/(Pixel*Frame) : 0.162 
Stream size : 2.73 GiB (97%) 
Writing library : XviD 1.1.2 (UTC 2006-11-01) 

Audio 
ID : 1 
Format : MPEG Audio 
Format version : Version 1 
Format profile : Layer 3 
Mode : Joint stereo 
Mode extension : MS Stereo 
Codec ID : 55 
Codec ID/Hint : MP3 
Duration : 1h 27mn 
Bit rate mode : Constant 
Bit rate : 112 Kbps 
Channel(s) : 2 channels 
Sampling rate : 48.0 KHz 
Compression mode : Lossy 
Stream size : 70.1 MiB (2%) 
Alignment : Aligned on interleaves 
Interleave, duration : 24 ms (0.72 video frame) 
Interleave, preload duration : 24 ms "
,blaatann,2011-05-28T10:49Z,"thank you thetorrentlord.
Like these film, and in good qulity.

And yes, this is Innocents_Lost.

Jesse_Stone_Innocents_Lost_720p_20110522_TTL.avi 
Format : AVI 
Format/Info : Audio Video Interleave 
Format profile : OpenDML 
File size : 2.80 GiB 
Duration : 1h 27mn 
Overall bit rate : 4 588 Kbps 
Movie name : Jesse_Stone_Innocents_Lost_720p_20110522_TTL.mpg 
Director : created.with.SUPER(C).v2010.bld.37 
Writing application : SUPER(C)  

Video 
ID : 0 
Format : MPEG-4 Visual 
Format profile : Simple@L3 
Format settings, BVOP : No 
Format settings, QPel : No 
Format settings, GMC : No warppoints 
Format settings, Matrix : Default (H.263) 
Codec ID : XVID 
Codec ID/Hint : XviD 
Duration : 1h 27mn 
Bit rate : 4 463 Kbps 
Width : 1 280 pixels 
Height : 720 pixels 
Display aspect ratio : 16:9 
Frame rate : 29.970 fps 
Color space : YUV 
Chroma subsampling : 4:2:0 
Bit depth : 8 bits 
Scan type : Progressive 
Compression mode : Lossy 
Bits/(Pixel*Frame) : 0.162 
Stream size : 2.73 GiB (97%) 
Writing library : XviD 1.1.2 (UTC 2006-11-01) 

Audio 
ID : 1 
Format : MPEG Audio 
Format version : Version 1 
Format profile : Layer 3 
Mode : Joint stereo 
Mode extension : MS Stereo 
Codec ID : 55 
Codec ID/Hint : MP3 
Duration : 1h 27mn 
Bit rate mode : Constant 
Bit rate : 112 Kbps 
Channel(s) : 2 channels 
Sampling rate : 48.0 KHz 
Compression mode : Lossy 
Stream size : 70.1 MiB (2%) 
Alignment : Aligned on interleaves 
Interleave, duration : 24 ms (0.72 video frame) 
Interleave, preload duration : 24 ms "
,aguila9,2011-06-12T06:42Z,Tom Selleck is just a god awful actor. Dear god I want to scratch my eyes out and put an ice pick through my ears....AWFUL!!!!!!!!!!!!!
